<?xml version="1.0" encoding="utf-8"?>
<!-- Generator: Adobe Illustrator 21.0.0, SVG Export Plug-In . SVG Version: 6.00 Build 0)  -->
<svg version="1.1" id="Layer_1" xmlns="http://www.w3.org/2000/svg" xmlns:xlink="http://www.w3.org/1999/xlink" x="0px" y="0px"
	 viewBox="0 0 16 16" style="enable-background:new 0 0 16 16;" xml:space="preserve">
<style type="text/css">
	.st0{fill:#959595;}
</style>
<path class="st0" d="M8,0C3.6,0,0,3.6,0,8s3.6,8,8,8s8-3.6,8-8S12.4,0,8,0z M8,2c3.3,0,6,2.7,6,6s-2.7,6-6,6s-6-2.7-6-6S4.7,2,8,2z
	 M9.9,6.2l1.8,1.8l0.6-0.6L9.9,5L5.8,9.1L4.1,7.3L3.5,7.9l2.3,2.3L9.9,6.2z"/>
</svg>
