<?xml version="1.0" encoding="utf-8"?>
<!-- Generator: Adobe Illustrator 21.0.0, SVG Export Plug-In . SVG Version: 6.00 Build 0)  -->
<svg version="1.1" id="Layer_1" xmlns="http://www.w3.org/2000/svg" xmlns:xlink="http://www.w3.org/1999/xlink" x="0px" y="0px"
	 viewBox="0 0 16 16" style="enable-background:new 0 0 16 16;" xml:space="preserve">
<style type="text/css">
	.st0{fill:#959595;}
</style>
<path class="st0" d="M14.5,3.4L14.5,3.4C14,2.6,13.4,2,12.7,1.5l0,0C11.3,0.5,9.7,0,8,0C3.6,0,0,3.6,0,8c0,1.7,0.5,3.3,1.5,4.7
	C2,13.4,2.7,14,3.4,14.5c1.3,1,3,1.5,4.6,1.5c4.4,0,8-3.6,8-8C16,6.3,15.4,4.7,14.5,3.4z M12.7,4.7c0,1.9-0.7,3.8-2,5.3l-2-2l4-4
	C12.7,4.3,12.7,4.5,12.7,4.7z M3.3,11.3c0-2,0.8-3.9,2-5.3l2,2l-4,4C3.3,11.7,3.3,11.5,3.3,11.3z M8,7.3l-2-2c1.5-1.3,3.3-2,5.3-2
	c0.2,0,0.5,0,0.7,0C12,3.3,8,7.3,8,7.3z M8,8.7l2,2c-1.5,1.3-3.3,2-5.3,2c-0.2,0-0.5,0-0.7,0C4,12.7,8,8.7,8,8.7z M11.6,2.2
	c-0.1,0-0.2,0-0.4,0c-2.3,0-4.4,0.9-6,2.3L3.5,2.8C4.8,1.7,6.4,1.1,8,1.1C9.3,1.1,10.5,1.5,11.6,2.2z M2.8,3.5l1.7,1.7
	C3,6.9,2.2,9,2.2,11.3c0,0.1,0,0.2,0,0.4C1.5,10.5,1.1,9.3,1.1,8C1.1,6.3,1.8,4.7,2.8,3.5z M4.4,13.8c0.1,0,0.2,0,0.4,0
	c2.3,0,4.4-0.9,6-2.3l1.7,1.7c-1.2,1.1-2.8,1.7-4.5,1.7C6.7,14.9,5.5,14.5,4.4,13.8z M13.2,12.5l-1.7-1.7c1.5-1.7,2.3-3.8,2.3-6
	c0-0.1,0-0.2,0-0.4c0.7,1.1,1.1,2.3,1.1,3.6C14.9,9.6,14.3,11.2,13.2,12.5z"/>
</svg>
