<?xml version="1.0" encoding="utf-8"?>
<!-- Generator: Adobe Illustrator 21.0.0, SVG Export Plug-In . SVG Version: 6.00 Build 0)  -->
<svg version="1.1" xmlns="http://www.w3.org/2000/svg" xmlns:xlink="http://www.w3.org/1999/xlink" x="0px" y="0px"
	 viewBox="0 0 16 16" style="enable-background:new 0 0 16 16;" xml:space="preserve">
<style type="text/css">
	.st0{fill:#5AAAFA;}
</style>
<path class="st0" d="M10,3.3V3c0-1.7,1.3-3,3-3s3,1.3,3,3s-1.3,3-3,3c-0.8,0-1.6-0.3-2.1-0.9L6,7.6v0.8l4.9,2.5
	c0.5-0.5,1.3-0.9,2.1-0.9c1.7,0,3,1.3,3,3s-1.3,3-3,3s-3-1.3-3-3v-0.4l-4.9-2.5C4.6,10.7,3.8,11,3,11c-1.7,0-3-1.3-3-3s1.3-3,3-3
	c0.8,0,1.6,0.3,2.1,0.9L10,3.3"/>
</svg>
